<svg id="Capa_1" xmlns="http://www.w3.org/2000/svg" xmlns:xlink="http://www.w3.org/1999/xlink" viewBox="0 0 206.2 68.3"><style>.st0,.st2{fill-rule:evenodd;clip-rule:evenodd;fill:#2a4790}.st2{fill:#fff}.st3{fill:#2a4790}.st4{fill-rule:evenodd;clip-rule:evenodd;fill:#8e0c55}</style><path class="st0" d="M87.7 57.8c-.6-.2-1.2-.4-1.8-.5-.5-.1-1.1-.2-1.7-.4-.9-.2-1.5-.4-1.9-.7-.3-.3-.5-.6-.5-1 0-.3.1-.6.3-.8.2-.2.4-.4.7-.5.3-.2.7-.3 1-.3.3-.1.7-.1 1-.1 1 0 2 .2 2.9.6 1 .4 1.8.8 2.4 1.4h.4v-3.9c-.8-.4-1.8-.6-2.8-.8-1-.2-2.1-.3-3.1-.3-2.1 0-3.9.5-5.3 1.5s-2.1 2.3-2.1 3.9c0 1.2.3 2.2.9 3 .6.8 1.6 1.4 3 1.9.6.2 1.2.4 1.9.5.7.1 1.3.3 1.9.4.5.1.9.3 1.2.6.3.3.5.6.5 1s-.1.7-.3.9c-.2.2-.5.4-.8.5-.3.1-.6.2-1 .3-.4.1-.7.1-1 .1-1 0-2-.2-3.1-.6-1.1-.4-2.1-.9-2.9-1.7h-.4v4c.9.2 1.9.5 2.9.8 1 .3 2.2.4 3.6.4 2.4 0 4.2-.5 5.6-1.5 1.4-1 2.1-2.4 2.1-4.1 0-1.2-.3-2.1-.9-2.8-.6-.8-1.5-1.4-2.7-1.8zM95.3 67.6h12v-3.2h-7.5v-4.3h6.9v-3.2h-6.9v-3h7.5v-3.3h-12zM119.1 61.5h3.4v3.3h-1.2c-1.8 0-3.2-.5-4.3-1.4-1-.9-1.6-2.4-1.6-4.4 0-.9.1-1.7.4-2.4.3-.7.7-1.3 1.1-1.7.5-.5 1.1-.8 1.7-1.1.6-.2 1.3-.3 2.1-.3.7 0 1.3.1 1.8.3.6.2 1.1.4 1.5.6.4.2.8.5 1.2.8.4.3.7.5.9.7h.4v-4c-1-.5-2-.8-2.9-1.1-.9-.3-2.1-.4-3.6-.4-2.9 0-5.1.8-6.8 2.4-1.7 1.6-2.5 3.7-2.5 6.4 0 2.8.8 5 2.5 6.6 1.7 1.5 3.9 2.3 6.7 2.3 1.2 0 2.4-.1 3.7-.4 1.2-.3 2.3-.6 3-.9v-8.4h-7.7v3.1zM142.1 61.2c0 1.2-.2 2.1-.7 2.7-.5.6-1.2.8-2.2.8-1 0-1.8-.3-2.3-.9-.5-.6-.7-1.5-.7-2.6V50.6h-4.5v10.9c0 2.1.6 3.7 1.9 4.8 1.3 1.1 3.1 1.7 5.5 1.7 2.5 0 4.3-.6 5.5-1.7 1.3-1.1 1.9-2.7 1.9-4.8V50.6H142v10.6zM164.6 58.5c.6-.8.9-1.9.9-3.2 0-.9-.2-1.7-.6-2.3-.4-.6-.9-1.1-1.5-1.5-.6-.4-1.3-.6-2-.7-.7-.1-1.6-.2-2.6-.2h-7.1v17h4.4v-6.2h1.6l.8 1 4.1 5.2h5.4l-6-7.2c1.2-.5 2-1.1 2.6-1.9zm-3.8-1.5c-.1.3-.3.6-.6.8-.3.2-.7.4-1.1.5-.1 0-.3 0-.4.1H156.3v-4.6h2.8c.3 0 .7.1.9.2.4.2.7.4.8.7.2.3.3.7.3 1.1-.1.5-.2.9-.3 1.2zM178.8 50.3c-2.7 0-4.8.8-6.3 2.4-1.5 1.6-2.3 3.7-2.3 6.5 0 2.7.8 4.9 2.3 6.5 1.5 1.6 3.6 2.4 6.3 2.4 2.7 0 4.8-.8 6.3-2.4 1.5-1.6 2.3-3.7 2.3-6.5s-.8-4.9-2.3-6.5c-1.6-1.6-3.7-2.4-6.3-2.4zm3.7 11.4c-.2.7-.5 1.2-.9 1.7s-.8.8-1.3 1c-.5.2-1 .3-1.5.3s-1-.1-1.5-.3c-.5-.2-.9-.5-1.3-1s-.7-1-.9-1.7c-.2-.7-.3-1.6-.3-2.6s.1-1.9.3-2.6c.2-.7.5-1.3.9-1.8s.8-.8 1.3-1c.4-.2.9-.3 1.5-.3.5 0 1 .1 1.5.3.5.2.9.5 1.3 1s.7 1 .9 1.8c.2.7.3 1.6.3 2.6 0 1.1-.1 2-.3 2.6zM204 59.5c-.6-.7-1.5-1.3-2.7-1.7-.6-.2-1.2-.4-1.8-.5-.5-.1-1.1-.2-1.7-.4-.9-.2-1.5-.4-1.9-.7-.3-.3-.5-.6-.5-1 0-.3.1-.6.3-.8.2-.2.4-.4.7-.5.3-.2.7-.3 1-.3.3-.1.7-.1 1-.1 1 0 2 .2 2.9.6 1 .4 1.8.8 2.4 1.4h.4v-3.9c-.8-.4-1.8-.6-2.8-.8-1-.2-2.1-.3-3.1-.3-2.1 0-3.9.5-5.3 1.5s-2.1 2.3-2.1 3.9c0 1.2.3 2.2.9 3 .6.8 1.6 1.4 3 1.9.6.2 1.2.4 1.9.5.7.1 1.3.3 1.9.4.5.1.9.3 1.3.6.3.3.5.6.5 1s-.1.7-.3.9c-.2.2-.5.4-.8.5-.3.1-.6.2-1 .3-.4.1-.7.1-1 .1-1 0-2-.2-3.1-.6-1.1-.4-2.1-.9-2.9-1.7h-.4v4c.9.4 1.8.7 2.9.9 1 .3 2.2.4 3.6.4 2.4 0 4.2-.5 5.6-1.5 1.4-1 2.1-2.4 2.1-4.1-.1-1.3-.4-2.3-1-3zM34.5.3c18.9 0 34.3 15.2 34.3 33.9S53.4 68.1 34.5 68.1.2 52.9.2 34.2 15.6.3 34.5.3z"/><g><defs><path id="SVGID_1_" d="M34.5.3c18.9 0 34.3 15.2 34.3 33.9S53.4 68.1 34.5 68.1.2 52.9.2 34.2 15.6.3 34.5.3z"/></defs><use xlink:href="#SVGID_1_" overflow="visible" fill-rule="evenodd" clip-rule="evenodd" fill="#2a4790"/><clipPath id="SVGID_2_"><use xlink:href="#SVGID_1_" overflow="visible"/></clipPath><g clip-path="url(#SVGID_2_)"><path class="st2" d="M32.6 38c3 2 5 5.2 5 9 0 3.1-1.3 5.8-3.4 7.8-1.5 1.9-9.5 8.5-12.3 10.8.8.3 1.5.6 2.4.8l14.7-8s2.6-1.3 5.1-3.6c3-2.6 4.8-6.5 4.8-10.8 0-5.3-2.8-9.9-7.1-12.4l-.2-.1c-.9-.6-1.9-1.3-2.9-2.2-2.2-2-3.6-5-3.6-8.2 0-2.5.6-4.7 2-6.5 0 0-9.9 6.4-10.2 12.7-.1 2.6 0 3.8 1.6 6.6.8 1.4 2.6 2.7 4.1 4.1z"/><path class="st2" d="M22.3 49.5c1.8.6 3.4 2.2 3.4 4.3 0 .7-.1 1.4-.4 2-.6 1.8-1.7 3.7-3 5.5-1 1.4-1.9 2.5-2.6 3.4.3.1.6.3.9.4l8.5-8.6s3.8-3.1 3.2-8.1c-.6-4.6-4.9-5-7.9-7.9-1.5-1.3-2.5-3.1-2.5-5.2 0-.5-.1-.7 0-1.2 0 0-4.8 3.3-5.4 6.5-.1.5-.1.8-.1 1.2 0 3.5 2.3 6.5 5.4 7.5.3.1.3.2.5.2z"/></g></g><g><path class="st3" d="M87.7 32.9c-.6-.2-1.2-.4-1.8-.5-.5-.1-1.1-.2-1.7-.4-.9-.2-1.5-.4-1.9-.7-.3-.3-.5-.6-.5-1 0-.3.1-.6.3-.8.2-.2.4-.4.7-.6.3-.2.7-.3 1-.3.3-.1.7-.1 1-.1 1 0 2 .2 2.9.6 1 .4 1.8.8 2.4 1.4h.4v-3.9c-.8-.4-1.8-.6-2.8-.8-1-.2-2.1-.3-3.1-.3-2.1 0-3.9.5-5.3 1.5s-2.1 2.3-2.1 3.9c0 1.2.3 2.2.9 3 .6.8 1.6 1.4 3 1.9.6.2 1.2.4 1.9.5.7.1 1.3.3 1.9.4.5.1.9.3 1.2.6.3.3.5.6.5 1s-.1.7-.3.9c-.2.2-.5.4-.8.5-.3.1-.6.2-1 .3-.4.1-.7.1-1 .1-1 0-2-.2-3.1-.6-1.1-.4-2.1-.9-2.9-1.7h-.4v4.1c.9.4 1.8.7 2.9.9 1 .3 2.2.4 3.6.4 2.4 0 4.2-.5 5.6-1.5 1.4-1 2.1-2.4 2.1-4.1 0-1.2-.3-2.1-.9-2.9-.6-.8-1.5-1.3-2.7-1.8zM105.1 25.8h-2.4l-6 17.1h4.5l1.1-3.5h5.6l1.1 3.5h4.6l-6-17.1h-2.5zm0 10.5h-1.8l1.8-5.6 1.8 5.6h-1.8zM131.5 35.6l-5.6-9.8h-5.5v17.1h4.1V31l6.8 11.9h4.3V25.8h-4.1zM155.5 25.9c-.5-.1-1.1-.2-1.6-.3-.6-.1-1.2-.1-1.9-.1-2.7 0-4.8.8-6.3 2.4-1.6 1.6-2.3 3.8-2.3 6.5 0 2.8.8 5 2.3 6.5 1.6 1.5 3.7 2.3 6.3 2.3.8 0 1.5 0 2-.1s1-.2 1.6-.4c.5-.1.9-.3 1.3-.5s.8-.4 1.1-.5v-4h-.4c-.2.2-.5.4-.8.7-.3.2-.7.5-1 .7-.4.2-.8.4-1.3.6-.5.2-1.1.3-1.7.3-.6 0-1.1-.1-1.7-.3-.6-.2-1.1-.5-1.5-.9-.5-.4-.9-1-1.2-1.7-.3-.7-.4-1.6-.4-2.7 0-1 .1-1.9.4-2.6.3-.7.7-1.3 1.1-1.8.5-.5 1-.8 1.5-1 .5-.2 1.1-.3 1.8-.3.5 0 1.1.1 1.5.3.5.2 1 .4 1.4.6.4.2.8.5 1.1.8.3.3.6.5.8.7h.5V27c-.3-.1-.7-.3-1.2-.5-.6-.4-1-.5-1.4-.6zM173.2 25.4c-2.7 0-4.8.8-6.3 2.4-1.5 1.6-2.3 3.8-2.3 6.5s.8 4.9 2.3 6.5c1.5 1.6 3.6 2.4 6.3 2.4 2.7 0 4.8-.8 6.3-2.4 1.5-1.6 2.3-3.8 2.3-6.5 0-2.8-.8-4.9-2.3-6.5-1.6-1.6-3.7-2.4-6.3-2.4zm3.7 11.5c-.2.7-.5 1.2-.9 1.7s-.8.8-1.3 1c-.5.2-1 .3-1.5.3s-1-.1-1.5-.3c-.5-.2-.9-.5-1.3-1s-.7-1-.9-1.7c-.2-.7-.3-1.6-.3-2.6s.1-1.9.3-2.6c.2-.7.5-1.3.9-1.8s.8-.8 1.3-1c.4-.2.9-.3 1.5-.3.5 0 1 .1 1.5.3.5.2.9.5 1.3 1s.7 1 .9 1.8c.2.7.3 1.6.3 2.6 0 1.1-.1 2-.3 2.6zM199.9 35.6c1-.5 1.8-1.1 2.5-1.9.6-.8.9-1.9.9-3.2 0-.9-.2-1.7-.6-2.3-.4-.6-.9-1.1-1.5-1.5-.6-.4-1.3-.6-2-.7-.7-.1-1.6-.2-2.6-.2h-7.1v17.1h4.4v-6.3h1.6l.8 1 4.1 5.2h5.4l-5.9-7.2zm-1.4-3.4c-.1.3-.3.6-.6.8-.3.2-.7.4-1.1.5-.1 0-.3 0-.4.1H194V29h2.8c.3 0 .7.1.9.2.4.2.7.4.8.7.2.3.3.7.3 1.1-.1.5-.2.9-.3 1.2z"/></g><g><path class="st4" d="M85.2 11.4h3.4v3.4h-1.2c-1.8 0-3.2-.5-4.3-1.4-1-.9-1.6-2.4-1.6-4.4 0-.9.1-1.8.4-2.5.3-.7.7-1.3 1.1-1.7.5-.5 1.1-.8 1.7-1.1.6-.2 1.3-.3 2.1-.3.7 0 1.3.1 1.8.3.6.2 1.1.4 1.5.6.4.2.8.5 1.2.8.4.3.7.5.9.7h.4v-4c-1-.5-2-.8-2.9-1.1-.9-.3-2.1-.4-3.6-.4-2.9 0-5.1.8-6.8 2.4-1.7 1.6-2.5 3.8-2.5 6.4 0 2.8.8 5 2.5 6.6C81 17.2 83.2 18 86 18c1.2 0 2.4-.1 3.7-.4 1.2-.3 2.3-.6 3-.9V8.2H85v3.2zM119.3 8.4c.6-.8.9-1.9.9-3.2 0-.9-.2-1.7-.6-2.3-.4-.6-.9-1.1-1.5-1.5-.6-.4-1.3-.6-2-.7-.7-.1-1.6-.2-2.6-.2h-7.1v17.1h4.4v-6.3h1.6l.8 1 4.1 5.2h5.4l-6-7.3c1.1-.4 2-1 2.6-1.8zm-3.9-1.5c-.1.3-.3.6-.6.8-.3.2-.7.4-1.1.5-.1 0-.3 0-.4.1H110.9V3.6h2.8c.3 0 .7.1.9.2.4.2.7.4.8.7.2.3.3.7.3 1.1-.1.6-.2 1-.3 1.3zM144.3 11.1c0 1.2-.2 2.1-.7 2.7-.5.6-1.2.8-2.2.8-1 0-1.8-.3-2.3-.9-.5-.6-.7-1.5-.7-2.7V.5h-4.5v10.9c0 2.1.6 3.8 1.9 4.9 1.3 1.1 3.1 1.7 5.5 1.7 2.5 0 4.3-.6 5.5-1.7 1.3-1.1 1.9-2.8 1.9-4.9V.5h-4.5v10.6zM173.8 1.6c-.6-.4-1.3-.7-2-.8-.7-.2-1.6-.3-2.6-.3H162.3v17.1h4.5V12h2.3c.6 0 1.2 0 1.7-.1s1-.2 1.4-.4l1.2-.6c.4-.3.7-.5 1-.8.5-.5.9-1.1 1.1-1.8.3-.7.4-1.5.4-2.3 0-1-.2-1.8-.5-2.5-.4-.9-.9-1.5-1.6-1.9zm-2.6 5.6c-.1.3-.3.6-.6.9-.1.1-.3.3-.6.4-.3.1-.5.2-.8.2h-.2c-.2 0-.5 0-.8.1h-1.5V3.7H169c.4 0 .7.1 1.1.3.3.1.6.4.9.7.2.3.4.8.4 1.2 0 .6-.1 1-.2 1.3zM202.3 2.5C200.8.9 198.7.1 196 .1c-2.7 0-4.8.8-6.3 2.4-1.5 1.6-2.3 3.8-2.3 6.5s.8 4.9 2.3 6.5c1.5 1.6 3.6 2.4 6.3 2.4 2.7 0 4.8-.8 6.3-2.4 1.5-1.6 2.3-3.8 2.3-6.5s-.8-4.9-2.3-6.5zm-2.7 9.1c-.2.7-.5 1.2-.9 1.7s-.8.8-1.3 1c-.5.2-1 .3-1.5.3s-1-.1-1.5-.3c-.5-.2-.9-.5-1.3-1s-.7-1-.9-1.7c-.2-.7-.3-1.6-.3-2.6s.1-1.9.3-2.6c.2-.7.5-1.3.9-1.8s.8-.8 1.3-1c.4-.2.9-.3 1.5-.3.5 0 1 .1 1.5.3.5.2.9.5 1.3 1s.7 1 .9 1.8c.2.7.4 1.6.4 2.6 0 1.1-.1 2-.4 2.6z"/></g></svg>